# AST/ASF file generated using VICON BodyLanguage
# -----------------------------------------------
:version 1.10
:name VICON
:units
  mass 1.0
  length 0.45
  angle deg
:documentation
   .ast/.asf automatically generated from VICON data using
   VICON BodyBuilder and BodyLanguage model FoxedUp or BRILLIANT.MOD
:root
   order TX TY TZ RX RY RZ
   axis XYZ
   position 0 0 0  
   orientation 0 0 0 
:bonedata
  begin
     id 1 
     name lhipjoint
     direction 0.671379 -0.66392 0.329334 
     length 2.38647 
     axis 0 0 0  XYZ
  end
  begin
     id 2 
     name lfemur
     direction 0.34202 -0.939693 0  
     length 6.48179  
     axis 0 0 20  XYZ
    dof rx ry rz
    limits (-160.0 20.0)
           (-70.0 70.0)
           (-60.0 70.0)
  end
  begin
     id 3 
     name ltibia
     direction 0.34202 -0.939693 0   
     length 6.86524   
     axis 0 0 20   XYZ
    dof rx
    limits (-10.0 170.0)
  end
  begin
     id 4 
     name lfoot
     direction 0.204886 -0.562919 0.800715   
     length 1.73031   
     axis -90 7.62852e-016 20   XYZ
    dof rx rz
    limits (-45.0 90.0)
           (-70.0 20.0)
  end
  begin
     id 5 
     name ltoes
     direction 1.53548e-011 -4.21841e-011 1   
     length 0.828161   
     axis -90 7.62852e-016 20   XYZ
    dof rx
    limits (-90.0 20.0)
  end
  begin
     id 6 
     name rhipjoint
     direction -0.662732 -0.670855 0.332775   
     length 2.3618  
     axis 0 0 0  XYZ 
  end
  begin
     id 7 
     name rfemur
     direction -0.34202 -0.939693 0   
     length 6.3025   
     axis 0 0 -20   XYZ
    dof rx ry rz
    limits (-160.0 20.0)
           (-70.0 70.0)
           (-70.0 60.0)
  end
  begin
     id 8 
     name rtibia
     direction -0.34202 -0.939693 0   
     length 6.8732   
     axis 0 0 -20   XYZ
    dof rx
    limits (-10.0 170.0)
 end
 begin
     id 9 
     name rfoot
     direction -0.173856 -0.477665 0.861168   
     length 1.54784  
     axis -90 -7.62852e-016 -20   XYZ
    dof rx rz
    limits (-45.0 90.0)
           (-20.0 70.0)
  end
  begin
     id 10 
     name rtoes
     direction -1.53562e-011 -4.21802e-011 1   
     length 0.759618   
     axis -90 -7.62852e-016 -20   XYZ
    dof rx
    limits (-90.0 20.0)
  end
  begin
     id 11 
     name lowerback
     direction -0.0278357 0.999497 -0.0151789   
     length 1.97203   
     axis 0 0 0   XYZ
    dof rx ry rz
    limits (-20.0 45.0)
           (-30.0 30.0)
           (-30.0 30.0)
  end
  begin
     id 12 
     name upperback
     direction -0.00360622 0.997542 0.0699804   
     length 1.94709   
     axis 0 0 0   XYZ
    dof rx ry rz
    limits (-20.0 45.0)
           (-30.0 30.0)
           (-30.0 30.0)
  end
  begin
     id 13 
     name thorax
     direction 0.00907706 0.997048 0.0762461   
     length 1.95722   
     axis 0 0 0   XYZ
    dof rx ry rz
    limits (-20.0 45.0)
           (-30.0 30.0)
           (-30.0 30.0)
  end
  begin
     id 14 
     name lowerneck
     direction -0.0481835 0.99872 -0.0153927   
     length 1.63078   
     axis 0 0 0   XYZ
    dof rx ry rz
    limits (-20.0 45.0)
           (-30.0 30.0)
           (-30.0 30.0)
  end
  begin
     id 15 
     name upperneck
     direction 0.0859716 0.979226 -0.183644   
     length 1.62591   
     axis 0 0 0   XYZ
    dof rx ry rz
    limits (-20.0 45.0)
           (-30.0 30.0)
           (-30.0 30.0)
  end
  begin
     id 16
     name head
     direction 0.0324821 0.997629 -0.0606773  
     length 1.64811  
     axis 0 0 0   XYZ
    dof rx ry rz
    limits (-20.0 45.0)
           (-30.0 30.0)
           (-30.0 30.0)
  end
  begin
     id 17 
     name lclavicle
     direction 0.939609 0.311019 0.142835  
     length 3.70647  
     axis 0 0 0   XYZ
    dof ry rz
    limits (-20.0 10.0)
           (0.0 20.0)
  end
  begin
     id 18 
     name lhumerus
     direction 1 -4.48963e-011 -1.59838e-027   
     length 4.59207   
     axis 180 -30 -90   XYZ
    dof rx ry rz
    limits (-60.0 90.0)
           (-90.0 90.0)
           (-90.0 90.0)
  end
  begin
     id 19
     name lradius
     direction 1 -4.48957e-011 -1.3483e-026   
     length 2.98109   
     axis 180 -30 -90   XYZ
    dof rx
    limits (-10.0 170.0)
  end
  begin
     id 20
     name lwrist
     direction 1 -4.48954e-011 -3.11579e-026   
     length 1.49055   
     axis 2.00652e-014 90 90   XYZ
    dof ry
    limits (-180.0 0.0)
 end
  begin
     id 21 
     name lhand
     direction 1 -4.4911e-011 -6.23158e-026   
     length 0.480203   
     axis 3.97628e-014 90 90   XYZ
    dof rx rz
    limits (-90.0 90.0)
           (-45.0 45.0)
  end
  begin
     id 22 
     name lfingers
     direction 1 -4.48893e-011 -1.24632e-025   
     length 0.387152   
     axis 7.95256e-014 90 90   XYZ
    dof rx
    limits (0.0 90.0)
  end
  begin
     id 23
     name lthumb
     direction 0.707107 -6.35013e-011 0.707107   
     length 0.555875   
     axis -90 45 2.85299e-015   XYZ
    dof rx rz
    limits (-45.0 45.0)
           (-45.0 45.0)
  end
  begin
     id 24 
     name rclavicle
     direction -0.950396 0.30392 0.0661859   
     length 3.70894  
     axis 0 0 0   XYZ 
    dof ry rz
    limits (-10.0 20.0)
           (-20.0 0.0)
  end
  begin
     id 25 
     name rhumerus
     direction -1 -4.48957e-011 -2.96677e-027  
     length 4.76508   
     axis 180 30 90   XYZ
    dof rx ry rz
    limits (-90.0 60.0)
           (-90.0 90.0)
           (-90.0 90.0)
  end
  begin
     id 26 
     name rradius
     direction -1 -4.48974e-011 -1.44501e-026   
     length 2.78902   
     axis 180 30 90   XYZ
    dof rx
    limits (-10.0 170.0)
  end
  begin
     id 27 
     name rwrist
     direction -1 -4.48978e-011 -3.11579e-026   
     length 1.39451   
     axis 2.00652e-014 -90 -90   XYZ
    dof ry
    limits (-180.0 0.0)
  end
  begin
     id 28
     name rhand
     direction -1 -4.48956e-011 -6.23158e-026   
     length 0.721303   
     axis 3.97628e-014 -90 -90   XYZ
    dof rx rz
    limits (-90.0 90.0)
           (-45.0 45.0)
  end
  begin
     id 29
     name rfingers
     direction -1 -4.4899e-011 -1.24632e-025   
     length 0.581533   
     axis 7.95256e-014 -90 -90   XYZ
    dof rx
    limits (0.0 90.0)
  end
  begin
     id 30
     name rthumb
     direction -0.707107 -6.34911e-011 0.707107   
     length 0.834968   
     axis -90 -45 -2.85299e-015   XYZ
    dof rx rz
    limits (-45.0 45.0)
           (-45.0 45.0)
  end
:hierarchy
  begin
    root lhipjoint rhipjoint lowerback
    lhipjoint lfemur
    lfemur ltibia
    ltibia lfoot
    lfoot ltoes
    rhipjoint rfemur
    rfemur rtibia
    rtibia rfoot
    rfoot rtoes
    lowerback upperback
    upperback thorax
    thorax lowerneck lclavicle rclavicle
    lowerneck upperneck
    upperneck head
    lclavicle lhumerus
    lhumerus lradius
    lradius lwrist
    lwrist lhand lthumb
    lhand lfingers
    rclavicle rhumerus
    rhumerus rradius
    rradius rwrist
    rwrist rhand rthumb
    rhand rfingers
  end

#!OML:ASF I:\salsa\salsa 7_09\Patient 1\Session 1\dancerfemale.ASF
:FULLY-SPECIFIED
:DEGREES
740
root 15.1354 15.7485 -5.36814 -367.707 300.285 726.623
lowerback 15.0682 6.34771 0.254216
upperback -3.43696 8.89881 2.86499
thorax -12.6939 4.27886 0.706219
lowerneck 7.61559 -11.7069 -15.6069
upperneck -1.69856 -16.8005 8.07365
head 0.256502 -8.49931 4.85295
rclavicle 4.48259e-014 -1.27222e-014
rhumerus -5.7292 -7.13688 -75.3514
rradius 70.9837
rwrist 5.30986
rhand -0.307581 45.7075
rfingers 7.12502
rthumb 25.2957 17.3648
lclavicle 4.48259e-014 -1.27222e-014
lhumerus -35.5098 20.634 72.0423
lradius 104.915
lwrist -15.7052
lhand -9.58676 39.5471
lfingers 7.12502
lthumb 16.3816 68.8753
rfemur -25.0898 -5.10432 11.2454
rtibia 56.3141
rfoot -8.97153 -17.5388
rtoes -19.9414
lfemur -17.1018 -3.80953 -25.563
ltibia 40.0225
lfoot -22.4936 -11.2022
ltoes 13.8713
741
root 15.2513 15.6948 -5.34692 -369.653 300.841 728.227
lowerback 15.4927 5.99525 0.119189
upperback -3.3951 8.31889 2.12856
thorax -12.7716 3.97814 0.0900508
lowerneck 7.87977 -11.4436 -15.398
upperneck -1.3881 -16.4785 8.29734
head 0.274509 -8.35794 4.91123
rclavicle -9.58142e-014 -4.29375e-014
rhumerus -7.00264 -7.15939 -74.566
rradius 72.4493
rwrist 4.03764
rhand 0.366909 45.7207
rfingers 7.12502
rthumb 25.9418 17.471
lclavicle -9.58142e-014 -4.29375e-014
lhumerus -33.4756 18.5043 74.8327
lradius 105.353
lwrist -16.0142
lhand -9.15405 38.7317
lfingers 7.12502
lthumb 16.7981 68.0251
rfemur -25.4085 -3.16628 10.6496
rtibia 59.1839
rfoot -8.84862 -17.6909
rtoes -22.5843
lfemur -17.0091 -3.75455 -26.8565
ltibia 40.2495
lfoot -22.311 -11.4479
ltoes 14.162
742
root 15.362 15.6574 -5.32863 -371.96 301.534 730.263
lowerback 15.563 5.60959 -0.261308
upperback -3.10351 7.61658 1.29448
thorax -12.3842 3.64665 -0.412598
lowerneck 7.95397 -11.1833 -15.0841
upperneck -1.2513 -16.1159 8.54972
head 0.259213 -8.18852 4.95901
rclavicle -2.5345e-014 0
rhumerus -7.27759 -6.95314 -73.8061
rradius 73.186
rwrist 2.83948
rhand 0.775451 45.6147
rfingers 7.12502
rthumb 26.3329 17.4228
lclavicle -2.5345e-014 0
lhumerus -31.4221 16.3469 77.5142
lradius 105.82
lwrist -16.1252
lhand -8.28316 37.7733
lfingers 7.12502
lthumb 17.6364 66.9934
rfemur -25.5512 -2.53048 9.85795
rtibia 61.9948
rfoot -8.65869 -17.321
rtoes -25.2364
lfemur -16.6844 -3.60851 -28.4041
ltibia 40.1519
lfoot -21.9614 -11.8455
ltoes 14.9563
743
root 15.4677 15.6205 -5.30914 -374.433 302.287 732.564
lowerback 15.4755 5.1519 -0.886241
upperback -2.74978 6.76676 0.409951
thorax -11.8729 3.26255 -0.778148
lowerneck 7.89503 -10.8249 -14.7794
upperneck -1.154 -15.6025 8.87776
head 0.241947 -7.94146 5.02811
rclavicle -1.0635e-014 -3.18055e-014
rhumerus -7.03521 -6.47689 -73.2652
rradius 73.6012
rwrist 1.77572
rhand 1.1034 45.2965
rfingers 7.12502
rthumb 26.6468 17.1519
lclavicle -1.0635e-014 -3.18055e-014
lhumerus -29.8403 14.2251 79.9097
lradius 106.35
lwrist -16.3464
lhand -7.82849 37.2505
lfingers 7.12502
lthumb 18.0739 66.4307
rfemur -25.5918 -2.45622 8.99483
rtibia 64.7553
rfoot -8.43136 -16.6324
rtoes -27.209
lfemur -16.2753 -3.33748 -30.1365
ltibia 39.8117
lfoot -21.5465 -12.2607
ltoes 15.8525
744
root 15.5664 15.5827 -5.28724 -376.592 303.079 734.771
lowerback 15.1776 4.57606 -1.38509
upperback -2.4846 5.77885 -0.639577
thorax -11.3212 2.79599 -1.34569
lowerneck 7.74548 -10.3795 -14.5098
upperneck -0.96286 -14.968 9.49174
head 0.276756 -7.63984 5.18041
rclavicle -5.89397e-014 -1.19271e-014
rhumerus -6.68296 -5.7892 -73.1118
rradius 73.9426
rwrist 0.814141
rhand 1.43772 44.7325
rfingers 7.12502
rthumb 26.9667 16.6369
lclavicle -5.89397e-014 -1.19271e-014
lhumerus -28.7748 12.1622 81.7862
lradius 106.932
lwrist -16.49
lhand -8.27878 37.0701
lfingers 7.12502
lthumb 17.6406 66.2898
rfemur -25.659 -2.65068 8.27925
rtibia 67.3206
rfoot -8.12134 -15.8949
rtoes -27.369
lfemur -16.0148 -3.01608 -31.8543
ltibia 39.3232
lfoot -21.1285 -12.661
ltoes 16.0978
745
root 15.6579 15.553 -5.26855 -378.358 303.87 736.536
lowerback 14.9308 3.89285 -1.63247
upperback -2.26364 4.69881 -1.74064
thorax -10.8502 2.2628 -2.10165
lowerneck 7.5629 -9.88143 -14.2507
upperneck -0.712107 -14.2674 10.2635
head 0.335493 -7.30778 5.38016
rclavicle -2.00276e-014 -1.43125e-014
rhumerus -6.16134 -4.86177 -73.2583
rradius 73.9832
rwrist -0.121542
rhand 1.74041 44.0029
rfingers 7.12502
rthumb 27.2563 15.9525
lclavicle -2.00276e-014 -1.43125e-014
lhumerus -28.1079 10.2916 83.2244
lradius 107.492
lwrist -16.4978
lhand -8.69132 36.7923
lfingers 7.12502
lthumb 17.2436 66.0472
rfemur -25.4962 -3.83287 7.8096
rtibia 69.5274
rfoot -7.51503 -14.7332
rtoes -27.6114
lfemur -15.6711 -2.55967 -33.3105
ltibia 38.7317
lfoot -20.6533 -13.1556
ltoes 16.2202
